<svg width="40" height="40" viewBox="0 0 40 40" fill="none" xmlns="http://www.w3.org/2000/svg"><path d="M39.9995 5.7041H34.2969V23.4571H39.9995V5.7041Z" fill="url(#paint0_linear_650_8259)"/><path d="M16.5488 0V5.70431H34.2967V0H16.5488Z" fill="url(#paint1_linear_650_8259)"/><path d="M39.9996 5.70431V0H34.2969V5.70431H39.9996Z" fill="#FBAD18"/><path d="M31.4448 14.2607H25.7422V32.0137H31.4448V14.2607Z" fill="url(#paint2_linear_650_8259)"/><path d="M7.99414 8.55664V14.2609H25.742V8.55664H7.99414Z" fill="url(#paint3_linear_650_8259)"/><path d="M31.4449 14.2604V8.55615H25.7422V14.2604H31.4449Z" fill="#FBAD18"/><path d="M22.8902 22.8186H17.1875V40.0001H22.8902V22.8186Z" fill="url(#paint4_linear_650_8259)"/><path d="M0 17.1145V22.8188H17.1896L17.1882 17.1145H0Z" fill="url(#paint5_linear_650_8259)"/><path d="M22.8901 22.8177V17.1134H17.1875V22.8177H22.8901Z" fill="#FBAD18"/><defs><linearGradient id="paint0_linear_650_8259" x1="37.1482" y1="-0.539732" x2="37.1482" y2="23.5055" gradientUnits="userSpaceOnUse"><stop stop-color="#FBAD18"/><stop offset="0.0886" stop-color="#FBAD18" stop-opacity="0.9114"/><stop offset="1" stop-color="#FBAD18" stop-opacity="0"/></linearGradient><linearGradient id="paint1_linear_650_8259" x1="40.1281" y1="2.85233" x2="16.7069" y2="2.85233" gradientUnits="userSpaceOnUse"><stop stop-color="#FBAD18"/><stop offset="0.0886" stop-color="#FBAD18" stop-opacity="0.9114"/><stop offset="1" stop-color="#FBAD18" stop-opacity="0"/></linearGradient><linearGradient id="paint2_linear_650_8259" x1="28.5936" y1="31.9854" x2="28.5936" y2="8.35133" gradientUnits="userSpaceOnUse"><stop stop-color="#FBAD18"/><stop offset="0.0886" stop-color="#FBAD18" stop-opacity="0.9114"/><stop offset="1" stop-color="#FBAD18" stop-opacity="0"/></linearGradient><linearGradient id="paint3_linear_650_8259" x1="7.97039" y1="11.4086" x2="31.6201" y2="11.4086" gradientUnits="userSpaceOnUse"><stop stop-color="#FBAD18"/><stop offset="0.0886" stop-color="#FBAD18" stop-opacity="0.9114"/><stop offset="1" stop-color="#FBAD18" stop-opacity="0"/></linearGradient><linearGradient id="paint4_linear_650_8259" x1="20.0393" y1="17.0318" x2="20.0393" y2="40.1106" gradientUnits="userSpaceOnUse"><stop stop-color="#FBAD18"/><stop offset="0.0886" stop-color="#FBAD18" stop-opacity="0.9114"/><stop offset="1" stop-color="#FBAD18" stop-opacity="0"/></linearGradient><linearGradient id="paint5_linear_650_8259" x1="22.8979" y1="19.9664" x2="0.0175109" y2="19.9664" gradientUnits="userSpaceOnUse"><stop stop-color="#FBAD18"/><stop offset="0.0886" stop-color="#FBAD18" stop-opacity="0.9114"/><stop offset="1" stop-color="#FBAD18" stop-opacity="0"/></linearGradient></defs></svg>