<svg xmlns="http://www.w3.org/2000/svg" viewBox="250 170 1500 265" xml:space="preserve">
  <style>
    .st2{fill:#fbad18}.st7{fill:#0e2237}
  </style>
  <g id="Layer_2"/>
  <g id="Layer_1">
    <linearGradient id="SVGID_1_" gradientUnits="userSpaceOnUse" x1="542.155" y1="177.444" x2="542.155" y2="360.007">
      <stop offset="0" style="stop-color:#fbad18"/>
      <stop offset=".089" style="stop-color:#fbad18;stop-opacity:.9114"/>
      <stop offset="1" style="stop-color:#fbad18;stop-opacity:0"/>
    </linearGradient>
    <path style="fill:url(#SVGID_1_)" d="M520.5 224.85h43.31v134.79H520.5z"/>
    <linearGradient id="SVGID_00000116209642081383395070000016618122168478575261_" gradientUnits="userSpaceOnUse" x1="564.788" y1="203.196" x2="386.91" y2="203.196">
      <stop offset="0" style="stop-color:#fbad18"/>
      <stop offset=".089" style="stop-color:#fbad18;stop-opacity:.9114"/>
      <stop offset="1" style="stop-color:#fbad18;stop-opacity:0"/>
    </linearGradient>
    <path style="fill:url(#SVGID_00000116209642081383395070000016618122168478575261_)" d="M385.71 181.54v43.31H520.5v-43.31z"/>
    <path class="st2" d="M563.809 181.541v43.31h-43.31v-43.31z"/>
    <linearGradient id="SVGID_00000083071607706724072780000017899661311189272218_" gradientUnits="userSpaceOnUse" x1="477.186" y1="424.395" x2="477.186" y2="244.953">
      <stop offset="0" style="stop-color:#fbad18"/>
      <stop offset=".089" style="stop-color:#fbad18;stop-opacity:.9114"/>
      <stop offset="1" style="stop-color:#fbad18;stop-opacity:0"/>
    </linearGradient>
    <path style="fill:url(#SVGID_00000083071607706724072780000017899661311189272218_)" d="M455.53 289.82h43.31v134.79h-43.31z"/>
    <linearGradient id="SVGID_00000074423176398899946280000004304844265105163965_" gradientUnits="userSpaceOnUse" x1="320.56" y1="268.163" x2="500.174" y2="268.163">
      <stop offset="0" style="stop-color:#fbad18"/>
      <stop offset=".089" style="stop-color:#fbad18;stop-opacity:.9114"/>
      <stop offset="1" style="stop-color:#fbad18;stop-opacity:0"/>
    </linearGradient>
    <path style="fill:url(#SVGID_00000074423176398899946280000004304844265105163965_)" d="M320.74 246.51v43.31h134.79v-43.31z"/>
    <path class="st2" d="M498.839 246.505v43.31h-43.31v-43.31z"/>
    <linearGradient id="SVGID_00000007427031664273995360000006391115947576721811_" gradientUnits="userSpaceOnUse" x1="412.218" y1="310.853" x2="412.218" y2="486.08">
      <stop offset="0" style="stop-color:#fbad18"/>
      <stop offset=".089" style="stop-color:#fbad18;stop-opacity:.9114"/>
      <stop offset="1" style="stop-color:#fbad18;stop-opacity:0"/>
    </linearGradient>
    <path style="fill:url(#SVGID_00000007427031664273995360000006391115947576721811_)" d="M390.56 354.79h43.31v130.45h-43.31z"/>
    <linearGradient id="SVGID_00000080918424412951130420000016090393027805526706_" gradientUnits="userSpaceOnUse" x1="433.923" y1="333.133" x2="260.153" y2="333.133">
      <stop offset="0" style="stop-color:#fbad18"/>
      <stop offset=".089" style="stop-color:#fbad18;stop-opacity:.9114"/>
      <stop offset="1" style="stop-color:#fbad18;stop-opacity:0"/>
    </linearGradient>
    <path style="fill:url(#SVGID_00000080918424412951130420000016090393027805526706_)" d="M260.02 311.48v43.31h130.55l-.01-43.31z"/>
    <path class="st2" d="M433.87 311.474v43.31h-43.31v-43.31z"/>
    <path class="st7" d="M1052.61 424.61h-41.18V181.73h41.18zm179.03 0h-41.51l-.16-242.89h41.67v72.8h37.45v38.1h-37.45zm478.5-173.43q14.265 8.82 22.05 25.8c5.19 11.31 7.78 24.89 7.78 40.73v106.91h-41.35V323.3c0-12.78-2.89-22.74-8.68-29.87-5.78-7.13-13.7-10.69-23.75-10.69-6.81 0-12.95 1.93-18.4 5.77-5.46 3.85-9.76 9.02-12.89 15.53-3.14 6.51-4.7 13.55-4.7 21.13v99.45h-41.35V323.3c0-12.78-2.89-22.74-8.67-29.87-5.79-7.13-13.7-10.69-23.75-10.69-6.81 0-12.97 1.93-18.49 5.77-5.51 3.85-9.84 9.02-12.97 15.53-3.14 6.51-4.7 13.55-4.7 21.13v99.45h-41.35V242.35h33.18l4.6 22.74c6.49-7.24 14.19-12.84 23.11-16.8s18.02-5.94 27.32-5.94c11.89 0 22.43 2.6 31.62 7.81s16.43 12.79 21.73 22.74c6.27-9.62 14.51-17.11 24.73-22.49 10.22-5.37 20.78-8.06 31.7-8.06 12.64 0 23.72 2.95 33.23 8.83m-252.78 81.31c0-17.33-3.4-32.97-10.11-46.5-6.75-13.61-16.74-24.41-29.68-32.1-12.92-7.68-28.46-11.57-46.16-11.57-16.11 0-30.87 4.12-43.85 12.24-12.97 8.11-23.23 19.26-30.51 33.16-7.26 13.87-10.95 29.31-10.95 45.9 0 16.4 3.91 31.75 11.62 45.62 7.71 13.89 18.53 25.04 32.15 33.14 11.98 7.13 25.41 11.18 40.03 12.03l87.47.18V383.4l-84.67.01c-9.41-.89-17.77-4.13-24.87-9.64-7.83-6.08-13.21-14.38-16.02-24.72h125.56v-16.56zm-125.17-19.16c2.74-9.26 7.53-16.68 14.27-22.06 7.37-5.88 16.3-8.86 26.56-8.86 10.57 0 19.41 2.92 26.28 8.67 6.32 5.29 10.8 12.77 13.33 22.26h-80.44zm-342.34-70.98h-51.92l-33.89 51.61-33.89-51.61h-51.92l59.85 91.13-59.85 91.13h51.92l33.89-51.6 33.89 51.6h51.92L930 333.48zm90.53 12.18v38.22h41.35v131.86h41.34V254.53z"/>
    <path class="st2" d="M1121.73 181.73h41.35v41.35h-41.35z"/>
    <path class="st7" d="M795.67 332.49c0-17.33-3.4-32.97-10.11-46.5-6.75-13.61-16.74-24.41-29.68-32.1-12.92-7.68-28.46-11.57-46.16-11.57-16.11 0-30.87 4.12-43.85 12.24-12.97 8.11-23.23 19.26-30.51 33.16-7.26 13.87-10.95 29.31-10.95 45.9 0 16.4 3.91 31.75 11.62 45.62 7.71 13.89 18.53 25.04 32.15 33.14 11.98 7.13 25.41 11.18 40.03 12.03l87.47.18V383.4l-84.68.01c-9.41-.89-17.77-4.13-24.87-9.64-7.83-6.08-13.21-14.38-16.02-24.72h125.56zM670.5 313.33c2.74-9.26 7.53-16.68 14.27-22.06 7.37-5.88 16.3-8.86 26.56-8.86 10.57 0 19.41 2.92 26.28 8.67 6.33 5.29 10.8 12.77 13.33 22.26H670.5z"/>
  </g>
</svg>
